<svg xmlns="http://www.w3.org/2000/svg" width="14" height="14" viewBox="0 0 14 14">
    <g fill="none" fill-rule="evenodd">
        <g fill="#FFC925">
            <g>
                <g>
                    <g>
                        <g>
                            <path d="M6.994 1c.266 0 .497.145.611.356l1.657 2.985 3.657.713c.236.043.445.218.527.471.077.236.025.48-.116.653l-.026.03-.03.03-2.412 2.589.414 3.392c.033.238-.07.491-.284.647-.2.146-.45.172-.658.091l-.036-.015-.038-.019-3.256-1.516-3.255 1.516-.038.019-.037.015c-.208.081-.457.055-.657-.09-.215-.157-.317-.41-.285-.648l.412-3.377L.726 6.245l-.03-.03-.026-.03C.53 6.012.477 5.767.554 5.532c.082-.253.29-.428.527-.471l3.64-.71 1.648-2.967.02-.037.02-.034C6.53 1.125 6.747 1 6.994 1z" transform="translate(-35 -2415) translate(16 2266) translate(0 42) translate(19 106) translate(0 1)"/>
                        </g>
                    </g>
                </g>
            </g>
        </g>
    </g>
</svg>
