<svg xmlns="http://www.w3.org/2000/svg" xmlns:xlink="http://www.w3.org/1999/xlink" width="424" height="274" viewBox="0 0 424 274">
    <style>
        <![CDATA[#exzu9iukn31d11_to {animation: exzu9iukn31d11_to__to 3000ms linear 1 normal forwards;animation-delay: 0.5s;}@keyframes exzu9iukn31d11_to__to { 0% {transform: translate(0px,1px);animation-timing-function: cubic-bezier(0.680000,-0.550000,0.265000,1.550000)} 10% {transform: translate(0px,-2px);animation-timing-function: cubic-bezier(0.680000,-0.550000,0.265000,1.550000)} 16.666667% {transform: translate(0px,1px)} 100% {transform: translate(0px,1px)} }#exzu9iukn31d52_to {animation: exzu9iukn31d52_to__to 3000ms linear 1 normal forwards;animation-delay: 0.5s;}@keyframes exzu9iukn31d52_to__to { 0% {transform: translate(0px,1px);animation-timing-function: cubic-bezier(0.680000,-0.550000,0.265000,1.550000)} 10% {transform: translate(0px,-2px);animation-timing-function: cubic-bezier(0.680000,-0.550000,0.265000,1.550000)} 16.666667% {transform: translate(0px,1px)} 100% {transform: translate(0px,1px)} }#exzu9iukn31d71_to {animation: exzu9iukn31d71_to__to 3000ms linear 1 normal forwards;animation-delay: 0.5s;}@keyframes exzu9iukn31d71_to__to { 0% {transform: translate(0px,1px);animation-timing-function: cubic-bezier(0.680000,-0.550000,0.265000,1.550000)} 10% {transform: translate(0px,-2px);animation-timing-function: cubic-bezier(0.680000,-0.550000,0.265000,1.550000)} 16.666667% {transform: translate(0px,1px)} 100% {transform: translate(0px,1px)} }#exzu9iukn31d72_to {animation: exzu9iukn31d72_to__to 3000ms linear 1 normal forwards;animation-delay: 0.5s;}@keyframes exzu9iukn31d72_to__to { 0% {transform: translate(0px,1px);animation-timing-function: cubic-bezier(0.680000,-0.550000,0.265000,1.550000)} 10% {transform: translate(0px,-2px);animation-timing-function: cubic-bezier(0.680000,-0.550000,0.265000,1.550000)} 16.666667% {transform: translate(0px,1px)} 100% {transform: translate(0px,1px)} }#exzu9iukn31d74_to {animation: exzu9iukn31d74_to__to 3000ms linear 1 normal forwards;animation-delay: 0.5s;}@keyframes exzu9iukn31d74_to__to { 0% {transform: translate(0px,1px);animation-timing-function: cubic-bezier(0.680000,-0.550000,0.265000,1.550000)} 10% {transform: translate(0px,-2px);animation-timing-function: cubic-bezier(0.680000,-0.550000,0.265000,1.550000)} 16.666667% {transform: translate(0px,1px)} 100% {transform: translate(0px,1px)} }#exzu9iukn31d75_to {animation: exzu9iukn31d75_to__to 3000ms linear 1 normal forwards;animation-delay: 0.5s;}@keyframes exzu9iukn31d75_to__to { 0% {transform: translate(0px,1px);animation-timing-function: cubic-bezier(0.680000,-0.550000,0.265000,1.550000)} 10% {transform: translate(0px,-2px);animation-timing-function: cubic-bezier(0.680000,-0.550000,0.265000,1.550000)} 16.666667% {transform: translate(0px,1px)} 100% {transform: translate(0px,1px)} }#exzu9iukn31d76 {animation: exzu9iukn31d76_c_o 3000ms linear 1 normal forwards;animation-delay: 0.5s;}@keyframes exzu9iukn31d76_c_o { 0% {opacity: 0;animation-timing-function: cubic-bezier(0.680000,-0.550000,0.265000,1.550000)} 16.666667% {opacity: 0} 30% {opacity: 1} 100% {opacity: 1} }#exzu9iukn31d79 {animation: exzu9iukn31d79_c_o 3000ms linear 1 normal forwards;animation-delay: 0.5s;}@keyframes exzu9iukn31d79_c_o { 0% {opacity: 0} 23.333333% {opacity: 0} 36.666667% {opacity: 1} 100% {opacity: 1} }#exzu9iukn31d82 {animation: exzu9iukn31d82_c_o 3000ms linear 1 normal forwards;animation-delay: 0.5s;}@keyframes exzu9iukn31d82_c_o { 0% {opacity: 0} 26.666667% {opacity: 0} 40% {opacity: 1} 100% {opacity: 1} }]]>
    </style>
    <defs>
        <path id="7fs1b4p5ba" d="M0.207 0.506L36.986 0.506 36.986 33.14 0.207 33.14z"/>
        <path id="988m0m24qc" d="M0 0.303L42.438 0.303 42.438 38.511 0 38.511z"/>
        <path id="tm99344e7e" d="M0.793 0.846L171.977 0.846 171.977 54 0.793 54z"/>
    </defs>
    <g fill="none" fill-rule="evenodd">
        <g>
            <g>
                <path fill="#EB3155" d="M158.748 112.234s-20.13-3.152-20.895 1.315c0 0 11.748 14.097 13.975 13.927 2.228-.171 17.062-1.403 17.346-1.735.285-.331 4.115-5.32 4.115-5.497 0-.178-4.44-6.698-14.54-8.01" transform="translate(-469 -454) translate(469 455)"/>
                <path stroke="#EB3155" stroke-linecap="round" stroke-linejoin="round" d="M158.748 112.234s-20.13-3.152-20.895 1.315c0 0 11.748 14.097 13.975 13.927 2.228-.171 17.062-1.403 17.346-1.735.285-.331 4.115-5.32 4.115-5.497 0-.178-4.44-6.698-14.54-8.01z" transform="translate(-469 -454) translate(469 455)"/>
                <g id="exzu9iukn31d11_to" transform="translate(0,1)">
                    <path fill="#FFD1B5" d="M146.595 102.24s.025 12.947-1.883 19.019c0 0 10.756 9.542 11.797 9.542 1.041 0 8.501-1.446 8.848-3.325.347-1.88 1.908-23.878 1.908-23.878l-20.67-1.358z" transform="translate(-469 -454) translate(469 455)"/>
                </g>
                <path fill="#E8E8E8" d="M394.695 165.06s-1.403 6.733 2.666 7.576c0 0 3.086.982 4.769-3.788 0 0 2.105-8.839 8.418-9.4 0 0 4.77-.841 6.733 4.069 0 0 1.684 4.91-.982 12.065 0 0-5.611 16.835-16.273 26.936h-44.612s-11.504-20.344-7.296-35.494c0 0 .842-2.666 4.49-2.525 0 0 3.928.841 3.227 3.928 0 0-.141 2.385 2.525 1.263 0 0 1.332-.416.84-3.648 0 0 3.509-40.966 24.13-53.03 0 0 10.102-7.014 17.678-1.123 0 0 5.61 4.35 3.086 16.695 0 0-2.385 13.188-4.91 18.659 0 0-4.068 13.047-4.49 17.817" transform="translate(-469 -454) translate(469 455)"/>
                <g transform="translate(-469 -454) translate(469 455) translate(387 169.377)">
                    <mask id="o3heobs99b" fill="#fff">
                        <use xlink:href="#7fs1b4p5ba"/>
                    </mask>
                    <path fill="#D8D8D8" d="M30.777 6.401c-8.706.207-10.364 10.156-10.364 10.156-.041-.26-.084-.516-.128-.768l-.042-.234c-.031-.175-.062-.348-.094-.519l-.05-.256c-.032-.169-.066-.335-.099-.499l-.046-.22c-.098-.467-.2-.918-.306-1.353l-.049-.198c-.038-.152-.076-.303-.115-.452l-.057-.215c-.039-.146-.079-.29-.119-.433l-.052-.186c-.115-.4-.233-.786-.355-1.157l-.055-.166-.132-.387-.062-.178-.137-.374-.056-.152c-.129-.339-.26-.665-.394-.978l-.058-.134-.146-.329c-.022-.05-.045-.099-.068-.147-.049-.107-.099-.212-.149-.316l-.058-.12c-.14-.285-.281-.556-.424-.815l-.06-.107c-.053-.093-.105-.185-.158-.275l-.068-.117c-.054-.089-.107-.177-.161-.263l-.059-.096c-.147-.232-.295-.453-.444-.663l-.059-.082c-.055-.077-.111-.153-.166-.226l-.07-.092-.166-.213-.059-.074c-.151-.186-.303-.36-.454-.527l-.059-.063-.169-.179-.069-.07-.17-.168-.057-.056c-.152-.144-.303-.278-.454-.405-.019-.016-.038-.03-.057-.047-.056-.047-.113-.092-.169-.136l-.067-.052-.167-.126-.057-.042c-.149-.107-.296-.206-.442-.298l-.056-.034c-.054-.034-.109-.067-.163-.098l-.065-.038-.161-.089-.054-.029c-.143-.076-.283-.145-.422-.207l-.053-.023c-.051-.023-.103-.045-.154-.066l-.061-.025-.151-.059-.05-.019c-.133-.049-.263-.092-.391-.13l-.05-.015-.139-.039-.058-.015-.132-.033-.051-.012c-.12-.027-.236-.05-.348-.07l-.047-.007-.121-.019-.051-.007-.115-.014-.045-.005c-.104-.012-.203-.02-.297-.025-.014 0-.027 0-.041-.002l-.1-.004-.044-.002c-.032 0-.063 0-.094-.002h-.076L9.548.51l-.03.001-.159.008-.033.003c-.049.004-.097.008-.139.013h-.002l-.12.015-.023.003-.091.015-.014.002-.06.011-.012.003c-.018.004-.03.006-.04.01l-.009.001-.008.002h-.002c-2.721 0-4.529 1.39-5.702 2.951-.084.112-.164.224-.242.337-.309.452-.569.91-.785 1.348-.701 1.422-.941 2.62-.941 2.62-.407 1.813-.667 3.532-.805 5.156-.039.464-.069.921-.089 1.37-.01.223-.019.446-.024.666-.011.44-.014.872-.008 1.296l.001.017c.033 2.331.316 4.427.74 6.281.047.204.096.404.146.602 1.649 6.532 5.014 9.9 5.014 9.9h23.215c1.684-1.944 3.024-4.21 4.071-6.41.105-.22.206-.439.305-.657.297-.655.567-1.299.813-1.924.082-.208.161-.414.238-.617.153-.407.295-.803.427-1.185.133-.382.254-.75.366-1.102.112-.352.214-.687.306-1 .508-1.733.729-2.859.729-2.859 2.28-10.986-5.804-10.986-5.804-10.986" mask="url(#o3heobs99b)"/>
                </g>
                <path fill="#FFF" d="M204.84 205.726l4.07 50.601 14.905-1.188-12.21-104.797s-1.347-5.519-1.377-6.34c-.032-.823-.988-3.895-.988-3.895l-5.61-3.67-2.175-3.147 3.385 72.436" transform="translate(-469 -454) translate(469 455)"/>
                <path fill="#C9002E" d="M202.806 147.529L201.455 141.917 201.455 136.769 209.832 137.748 212.635 137.054 210.949 142.76 210.683 146.185" transform="translate(-469 -454) translate(469 455)"/>
                <path fill="#0F1D21" d="M384.112 210.293c0 25.433-77.881 46.05-173.953 46.05s-173.953-20.617-173.953-46.05c0-25.433 77.88-46.051 173.953-46.051 96.072 0 173.953 20.618 173.953 46.05" transform="translate(-469 -454) translate(469 455)"/>
                <path fill="#FFD1B5" d="M226.945 99.116c-5.854 11.357-16.503 18.631-28.106 17.787-16.587-1.206-28.843-18.548-27.375-38.733 1.47-20.185 16.106-35.57 32.693-34.363C220.744 45.014 233 62.355 231.531 82.54" transform="translate(-469 -454) translate(469 455)"/>
                <path fill="#FFD1B5" d="M224.37 86.292c.234-.393-.661-6.4.957-7.512 1.618-1.112 5.009-5.476 5.009-5.476.32-.181 5.06-6.19 10.988-1.762 0 0 6.826 8.603-9.02 17.272 0 0-3.08 3.739-1.28 15.403l3.463 22.42 13.19 22.11-26.583 10.899-26.721-23.131-.864-25.261s3.903-25.745 4.988-29.01" transform="translate(-469 -454) translate(469 455)"/>
                <path fill="#E6BDA2" d="M193.588 116.57s13.996.263 18.55-3.288c0 0-18.226 13.826-18.001 19.337l-.55-16.05z" transform="translate(-469 -454) translate(469 455)"/>
                <path fill="#FFF" d="M216.913 80.355c0 3.396-2.127 6.15-4.75 6.15-2.624 0-4.751-2.754-4.751-6.15 0-3.396 2.127-6.15 4.75-6.15 2.624 0 4.75 2.754 4.75 6.15" transform="translate(-469 -454) translate(469 455)"/>
                <path fill="#1D1D1B" d="M213.945 78.572c1.006 1.006 1.023 2.62.038 3.605-.985.985-2.599.968-3.604-.038-1.007-1.006-1.024-2.62-.039-3.605.985-.985 2.6-.968 3.605.038" transform="translate(-469 -454) translate(469 455)"/>
                <path fill="#FFF" d="M193.508 80.355c0 3.396-2.127 6.15-4.75 6.15-2.624 0-4.75-2.754-4.75-6.15 0-3.396 2.126-6.15 4.75-6.15 2.623 0 4.75 2.754 4.75 6.15" transform="translate(-469 -454) translate(469 455)"/>
                <path fill="#1D1D1B" d="M190.541 78.572c1.006 1.006 1.023 2.62.04 3.605-.986.985-2.6.968-3.606-.038-1.006-1.006-1.023-2.62-.038-3.605.984-.985 2.598-.968 3.604.038" transform="translate(-469 -454) translate(469 455)"/>
                <g>
                    <path fill="#FF365D" d="M7.672 98.881l-5.23 12.946 72.252 34.98 49.873-31.584c18.553-3.373 32.096 17.306 39.405 22.727 2.554 1.894 5.622-5.984 5.622-5.984 5.06-2.81 10.579-20.289 10.579-20.289 10.964-31.735-33.776-88.95-33.776-88.95C133.042 3.501 119.509.818 112.952.47c-2.185-.116-3.595.027-3.966-.096-1.482-.493-20.059 2.174-20.059 2.174C71.475 25.34 48.428 9.4 48.428 9.4l-24.615 2.146S2.285 16.787.406 38.408" transform="translate(-469 -454) translate(469 455) translate(146 118.377)"/>
                    <path stroke="#FF365D" stroke-linecap="round" stroke-linejoin="round" d="M7.672 98.881l-5.23 12.946 72.252 34.98 49.873-31.584c18.553-3.373 32.096 17.306 39.405 22.727 2.554 1.894 5.622-5.984 5.622-5.984 5.06-2.81 10.579-20.289 10.579-20.289 10.964-31.735-33.776-88.95-33.776-88.95C133.042 3.501 119.509.818 112.952.47c-2.185-.116-3.595.027-3.966-.096-1.482-.493-20.059 2.174-20.059 2.174C71.475 25.34 48.428 9.4 48.428 9.4l-24.615 2.146S2.285 16.787.406 38.408" transform="translate(-469 -454) translate(469 455) translate(146 118.377)"/>
                </g>
                <path fill="#29515A" d="M224.335 38.272s10.434 6.119 16.836 21.192c2.01-1.644 2.622-3.918 2.622-3.918 2.383-4.964-2.184-9.928-2.184-9.928 5.758-.397 5.758-9.53 5.758-9.53 0-5.56-4.765-6.552-4.765-6.552 2.58-2.78 1.588-6.751 1.588-6.751-1.39-7.346-8.34-7.545-8.34-7.545 1.986-4.765-2.183-9.134-2.183-9.134-5.758-3.375-11.317-.198-11.317-.198-.596-3.971-7.545-5.162-7.545-5.162-6.156-1.39-9.531 3.574-9.531 3.574-14.891-4.567-14.295 7.744-14.295 7.744-14.098.992-8.737 12.905-8.737 12.905-8.028 3.68-6.194 10.036-5.416 11.948 10.132-4.466 30.243-10.533 47.509 1.355" transform="translate(-469 -454) translate(469 455)"/>
                <path stroke="#29515A" stroke-linecap="round" stroke-linejoin="round" d="M224.335 38.272s10.434 6.119 16.836 21.192c2.01-1.644 2.622-3.918 2.622-3.918 2.383-4.964-2.184-9.928-2.184-9.928 5.758-.397 5.758-9.53 5.758-9.53 0-5.56-4.765-6.552-4.765-6.552 2.58-2.78 1.588-6.751 1.588-6.751-1.39-7.346-8.34-7.545-8.34-7.545 1.986-4.765-2.183-9.134-2.183-9.134-5.758-3.375-11.317-.198-11.317-.198-.596-3.971-7.545-5.162-7.545-5.162-6.156-1.39-9.531 3.574-9.531 3.574-14.891-4.567-14.295 7.744-14.295 7.744-14.098.992-8.737 12.905-8.737 12.905-8.028 3.68-6.194 10.036-5.416 11.948 10.132-4.466 30.243-10.533 47.509 1.355z" transform="translate(-469 -454) translate(469 455)"/>
                <path fill="#FF365D" d="M241.171 59.464c-6.403-15.073-16.836-21.192-16.836-21.192-17.267-11.889-37.377-5.82-47.51-1.355.146.358.254.56.254.56-1.182 1.647-2.162 3.565-2.984 5.657 10.327-4.429 29.946-9.99 46.844 1.643 0 0 8.306 4.868 14.644 16.62l.069-.292c2.502.152 4.277-.625 5.519-1.64" transform="translate(-469 -454) translate(469 455)"/>
                <path stroke="#FF3B6A" stroke-linecap="round" stroke-linejoin="round" d="M241.171 59.464c-6.403-15.073-16.836-21.192-16.836-21.192-17.267-11.889-37.377-5.82-47.51-1.355.146.358.254.56.254.56-1.182 1.647-2.162 3.565-2.984 5.657 10.327-4.429 29.946-9.99 46.844 1.643 0 0 8.306 4.868 14.644 16.62l.069-.292c2.502.152 4.277-.625 5.519-1.64z" transform="translate(-469 -454) translate(469 455)"/>
                <path fill="#29515A" d="M220.94 44.778c-16.899-11.635-36.518-6.072-46.845-1.643-6.218 15.826-2.972 41.995-2.972 41.995-1.39-36.533 30.577-35.144 30.577-35.144 24.025-1.191 30.623 24.22 30.623 24.22l3.26-12.81c-6.338-11.751-14.644-16.618-14.644-16.618" transform="translate(-469 -454) translate(469 455)"/>
                <path stroke="#29515A" stroke-linecap="round" stroke-linejoin="round" d="M220.94 44.778c-16.899-11.635-36.518-6.072-46.845-1.643-6.218 15.826-2.972 41.995-2.972 41.995-1.39-36.533 30.577-35.144 30.577-35.144 24.025-1.191 30.623 24.22 30.623 24.22l3.26-12.81c-6.338-11.751-14.644-16.618-14.644-16.618z" transform="translate(-469 -454) translate(469 455)"/>
                <path fill="#FFFDFF" d="M194.638 126.715s20.886 16.013 39.71-6.698l1.71 44.642s-25.913 18.9-25.913 16.427c0-.576-18.394-17.648-18.394-22.851 0-17.168 2.887-31.52 2.887-31.52" transform="translate(-469 -454) translate(469 455)"/>
                <path fill="#FF365D" d="M234.363 120.163s10.213-.86 15.418-1.135c0 0 3.292 35.526-1.834 40.776h-5.073s-10.908 20.09-32.715 21.43c0 0 28.242-30.625 24.204-61.07" transform="translate(-469 -454) translate(469 455)"/>
                <path stroke="#FF365D" stroke-linecap="round" stroke-linejoin="round" d="M234.363 120.163s10.213-.86 15.418-1.135c0 0 3.292 35.526-1.834 40.776h-5.073s-10.908 20.09-32.715 21.43c0 0 28.242-30.625 24.204-61.07z" transform="translate(-469 -454) translate(469 455)"/>
                <path fill="#FF365D" d="M194.467 127.475s-3.965 28.248 15.691 53.758L191.5 164.242l-4.363 13.541s-10.86-27.722-2.99-49.087l10.321-1.22z" transform="translate(-469 -454) translate(469 455)"/>
                <path stroke="#FF3B6A" stroke-linecap="round" stroke-linejoin="round" d="M194.467 127.475s-3.965 28.248 15.691 53.758L191.5 164.242l-4.363 13.541s-10.86-27.722-2.99-49.087l10.321-1.22z" transform="translate(-469 -454) translate(469 455)"/>
                <path stroke="#000" stroke-linecap="round" stroke-linejoin="round" d="M199.511 85.13L195.452 92.479 201.185 94.307M207.633 72.777s4.28-5.643 10.4 0M193.508 72.777s-4.28-5.643-10.4 0" transform="translate(-469 -454) translate(469 455)"/>
                <path stroke="#AF2546" stroke-linecap="round" stroke-linejoin="round" stroke-width="1.8" d="M210.159 181.233c22.659.237 28.11-22.803 28.11-22.803l9.679 1.374c4.573-11.318 1.833-40.777 1.833-40.777M184.146 128.696s-8.565 15.993 2.99 49.087l4.364-13.541 18.659 16.992s-19.666-23.459-15.691-53.759M210.159 181.233s-5.318 24.493 0 56.151M319.987 245.435s-3.838-7.894-6.633-10.28" transform="translate(-469 -454) translate(469 455)"/>
                <path fill="#E8E8E8" d="M31.913 270.36s-15.717-21.058-18.696-47.15c0 0-.205-8.218 4.726-7.602 0 0 4.52.206 8.32 7.704 0 0 1.027 3.39 4.623 1.336 0 0 1.85-1.746.205-4.623 0 0-6.882-9.76-8.526-17.155 0 0-1.643-9.964 6.575-10.683 0 0 14.483-.205 19.62 15.203 0 0 1.335 8.115 6.78 7.704 0 0 4.211.514 3.287-5.958 0 0-1.747-8.115 4.11-9.142 0 0 15.407-3.287 11.915 13.765 0 0-7.499 41.192-15.1 56.6H31.912z" transform="translate(-469 -454) translate(469 455)"/>
                <g transform="translate(-469 -454) translate(469 455) translate(0 232.377)">
                    <mask id="3lall0937d" fill="#fff">
                        <use xlink:href="#988m0m24qc"/>
                    </mask>
                    <path fill="#D8D8D8" d="M14.743 37.32S-3.587 25.406.63 4.329c0 0 1.375-6.874 10.905-2.658 0 0 8.798 6.232 9.714 14.113 0 0-1.465-14.663 8.248-13.38 0 0 8.065 1.65 2.017 16.496 0 0 2.199-3.483 6.415-2.933 0 0 7.33.184 3.299 13.38 0 0-3.116 8.065-5.316 9.164H16.484l-1.741-1.191z" mask="url(#3lall0937d)"/>
                </g>
                <path stroke="#000" stroke-linecap="round" stroke-linejoin="round" d="M193.508 100.914s5.4 6.038 13.903 0" transform="translate(-469 -454) translate(469 455)"/>
                <path fill="#DE2946" d="M280.095 180.725s15.265 16.009 1.606 34.415c0 0-.553-20.663-1.606-34.415" transform="translate(-469 -454) translate(469 455)"/>
                <path stroke="#AF2546" stroke-linecap="round" stroke-linejoin="round" stroke-width="1.8" d="M281.148 215.14c2.501-4.12 0-20.331 0-20.331M287.52 197.033c.234 10.254-6.372 18.107-6.372 18.107M254.28 118.057s23.301-4.659 44.654 32.074" transform="translate(-469 -454) translate(469 455)"/>
                <g id="exzu9iukn31d52_to" transform="translate(0,1)">
                    <path stroke="#AF2546" stroke-linecap="round" stroke-linejoin="round" stroke-width="1.5" d="M202.369 79.632c0-6.222 5.044-11.266 11.267-11.266 6.222 0 11.266 5.044 11.266 11.266s-5.044 11.266-11.266 11.266c-6.223 0-11.267-5.044-11.267-11.266zM197.995 79.632L202.369 79.632" transform="translate(-469 -454) translate(469 455)"/>
                </g>
                <path stroke="#AF2546" stroke-linecap="round" stroke-linejoin="round" stroke-width="1.5" d="M224.901 79.632s7.577-1.797 7.45-4.587c0 0-.605-4.422 3.439-4.776" transform="translate(-469 -454) translate(469 455)"/>
                <g>
                    <path fill="#FF365D" d="M41.056 132.04c-37.385-1.067-39.52-22.074-39.52-22.074-5.698-20.651 16.733-89.367 16.733-89.367l5.584-19.427.144-.501s25.23 18.178 35.292 7.017L48.786 65.735" transform="translate(-469 -454) translate(469 455) translate(114 112.377)"/>
                    <path stroke="#FF365D" stroke-linecap="round" stroke-linejoin="round" d="M41.056 132.04c-37.385-1.067-39.52-22.074-39.52-22.074-5.698-20.651 16.733-89.367 16.733-89.367l5.584-19.427.144-.501s25.23 18.178 35.292 7.017L48.786 65.735" transform="translate(-469 -454) translate(469 455) translate(114 112.377)"/>
                </g>
                <g transform="translate(-469 -454) translate(469 455) translate(140 218.377)">
                    <mask id="ohbr4zzkvf" fill="#fff">
                        <use xlink:href="#tm99344e7e"/>
                    </mask>
                    <path fill="#FFD1B5" d="M51.581 51.983c82.202 9.353 120.396-16.851 120.396-16.851-3.377-17.368-35.896-31.925-35.896-31.925-17.129 23.85-80.359 27.006-80.359 27.006-9.375.053-10.91-4.14-10.91-4.14C44.213 8.36 33.765 5.475 33.765 5.475S23.033 1.852 22.85 1.852c-.184 0-1.47 2.633-1.47 2.633l-7.992-1.392s2.481 3.29 0 0c-2.48-3.291-7.283-1.996-7.283-1.996-6.269 3.284-3.77 9.254-3.77 9.254-3.573 4.378.188 11.542.188 11.542-1.294 6.866 2.625 8.32 2.625 8.32-.1 2.289 3.047 5.51 3.047 5.51 9.04 11.359 33.091 14.265 33.091 14.265l10.296 1.995z" mask="url(#ohbr4zzkvf)"/>
                </g>
                <path stroke="#DEB69C" stroke-linecap="round" stroke-linejoin="round" stroke-width="1.8" d="M142.333 228.728s7.845 9.62 17.37 9.746M142.522 240.27s8.948 7.808 14.711 6.024M145.147 248.59s3.192 3.51 7.26 4.06" transform="translate(-469 -454) translate(469 455)"/>
                <path stroke="#AF2546" stroke-linecap="round" stroke-linejoin="round" stroke-width="1.8" d="M311.646 256.621c4.436-16.782-35.564-35.038-35.564-35.038-2.01-5.8 5.066-6.443 5.066-6.443s30.394 1.104 40.584 26.362c0 0-1.23 4.112-3.683 6.477 0 0-.667 1.828-2.455 2.365 0 0-3.026-11.289-11.174-16.784" transform="translate(-469 -454) translate(469 455)"/>
                <path fill="#E6BDA2" d="M184.008 90.558s1.66 6.148-6.994 12.005l-.934-1.214s8.977-7.711 7.928-10.791" transform="translate(-469 -454) translate(469 455)"/>
                <path fill="#DE2946" d="M184.811 244.45s63.494 1.346 89.154-20.28c0 0-17.068 24.24-82.215 25.381 0 0-7.599-.466-6.939-5.102" transform="translate(-469 -454) translate(469 455)"/>
                <path stroke="#AF2546" stroke-linecap="round" stroke-linejoin="round" stroke-width="1.8" d="M229.368 197.033s25.655 4.038 33.544-4.846" transform="translate(-469 -454) translate(469 455)"/>
                <path fill="#DE2946" d="M171.921 129.923L163.218 172.875 170.398 179.304z" transform="translate(-469 -454) translate(469 455)"/>
                <path stroke="#AF2546" stroke-linecap="round" stroke-linejoin="round" stroke-width="1.8" d="M173.289 120.243L163.334 172.346M164.998 130.253s-15.56 2.666-26.49-9.384" transform="translate(-469 -454) translate(469 455)"/>
                <path stroke="#AF2546" stroke-linecap="round" stroke-linejoin="round" d="M199.09 249.317s57.83-1.121 76.99-27.733" transform="translate(-469 -454) translate(469 455)"/>
                <path fill="#E6BDA2" d="M172.267 73.7l4.612-.233s-.128 1.462-1.58 1.462c0 0-2.33-.016-3.153-.449l.12-.78z" transform="translate(-469 -454) translate(469 455)"/>
                <g id="exzu9iukn31d71_to" transform="translate(0,1)">
                    <path stroke="#AF2546" stroke-linecap="round" stroke-linejoin="round" stroke-width="1.5" d="M175.488 78.894c0-6.223 5.044-11.267 11.266-11.267s11.266 5.044 11.266 11.267c0 6.221-5.044 11.265-11.266 11.265s-11.266-5.044-11.266-11.266z" transform="translate(-469 -454) translate(469 455)"/>
                </g>
                <g id="exzu9iukn31d72_to" transform="translate(0,1)">
                    <path fill="#E6BDA2" d="M167.266 106.463s-.068.77-6.072.611c0 0 3.083 6.18 2.294 13.795l-.153 1.681 2.504.013 1.427-16.1z" transform="translate(-469 -454) translate(469 455)"/>
                </g>
                <path fill="#8F1D39" d="M175.68 74.891s1.16-.138 1.199-.222c0 0 .845-1.654 1.178-2.057l-.734-.97-1.35 2.332s-.376.338-.35.393c.025.056-.004.524-.004.524h.062z" transform="translate(-469 -454) translate(469 455)"/>
                <g id="exzu9iukn31d74_to" transform="translate(0,1)">
                    <path fill="#FFD1B5" d="M140.683 74.518l.002 10.505c-.128 13.49 5.91 17.216 5.91 17.216 8.48 8.994 22.1 3.647 22.1 3.647 2.697-.337 11.692-8.015 11.692-8.015 5.525-5.01 3.083-8.865 3.083-8.865-3.854-3.598-7.658.703-7.658.703-8.498 9.848-11.047 0-11.047 0-3.116-21.029 10.065-15.376 10.065-15.376 1.631.561 2.387-1.512 2.387-1.512.514-2.312-.899-3.083-.899-3.083-17.73-8.994-18.673 5.648-18.673 5.648-.386-7.58 8.351-14.004 8.351-14.004 5.816-4.923 2.441-7.714 2.441-7.714-4.592-3.285-9.25 5.786-8.993 3.216.064-.642-.056-1.164-.273-1.585-.65-1.265-2.169-1.627-2.169-1.627-5.532.543-9.567 9.304-9.567 9.304s-5.488-5.1-6.752 11.542" transform="translate(-469 -454) translate(469 455)"/>
                </g>
                <g id="exzu9iukn31d75_to" transform="translate(0,1)">
                    <path stroke="#DEB69C" stroke-linecap="round" stroke-linejoin="round" stroke-width="1.8" d="M159.591 57.389s-8.588 9.859-7.493 16.489M147.436 62.977s-4.041 9.104-2.511 12.977M148.6 104.04s3.49 2.422 6.145 2.868" transform="translate(-469 -454) translate(469 455)"/>
                </g>
                <g id="exzu9iukn31d76" opacity="0">
                    <path fill="#FF365D" d="M102.128 84.381c5.37-2.228 9.01-5.884 11.17-11.174 1.08 2.612 2.495 4.87 4.423 6.79 1.898 1.89 4.115 3.297 6.765 4.38-5.367 2.2-9.014 5.88-11.187 11.174-2.174-5.305-5.815-8.96-11.171-11.17" transform="translate(-469 -454) translate(469 455)"/>
                    <path stroke="#FF3B6A" stroke-linecap="round" stroke-linejoin="round" d="M102.128 84.381c5.37-2.228 9.01-5.884 11.17-11.174 1.08 2.612 2.495 4.87 4.423 6.79 1.898 1.89 4.115 3.297 6.765 4.38-5.367 2.2-9.014 5.88-11.187 11.174-2.174-5.305-5.815-8.96-11.171-11.17z" transform="translate(-469 -454) translate(469 455)"/>
                </g>
                <g id="exzu9iukn31d79" opacity="0">
                    <path fill="#FF365D" d="M124.504 50.982c1.301 2.545 3.132 4.307 5.626 5.64-2.471 1.32-4.303 3.143-5.617 5.669-1.338-2.54-3.19-4.356-5.67-5.645 2.465-1.338 4.295-3.152 5.66-5.664" transform="translate(-469 -454) translate(469 455)"/>
                    <path stroke="#FF3B6A" stroke-linecap="round" stroke-linejoin="round" d="M124.504 50.982c1.301 2.545 3.132 4.307 5.626 5.64-2.471 1.32-4.303 3.143-5.617 5.669-1.338-2.54-3.19-4.356-5.67-5.645 2.465-1.338 4.295-3.152 5.66-5.664z" transform="translate(-469 -454) translate(469 455)"/>
                </g>
                <g id="exzu9iukn31d82" opacity="0">
                    <path fill="#FF365D" d="M99.412 70.13c-.786-1.71-2.185-3.091-4.248-4.062 2.066-.974 3.463-2.357 4.417-4.43.946 2.036 2.334 3.472 4.074 4.257l-4.243 4.235" transform="translate(-469 -454) translate(469 455)"/>
                    <path stroke="#FF3B6A" stroke-linecap="round" stroke-linejoin="round" d="M99.412 70.13c-.786-1.71-2.185-3.091-4.248-4.062 2.066-.974 3.463-2.357 4.417-4.43.946 2.036 2.334 3.472 4.074 4.257l-4.243 4.235z" transform="translate(-469 -454) translate(469 455)"/>
                </g>
                <path fill="#B0B0B0" d="M167.126 202.194l5.841-16.994c-1.15-10.555-10.514-14.144-10.514-14.144l-3.832.668 2.464 14.142-5.637 7.332-.06.071-.08-.046-7.786-4.994-2.464-14.142-3.832.668s-7.598 6.545-5.11 16.866l11.291 14.01 3.125-.546 3.436 19.716c3.07 2.191 7.952 4.708 14.785 5.485l-4.799-27.54 3.172-.552z" transform="translate(-469 -454) translate(469 455)"/>
                <path stroke="#8F8F8F" stroke-linecap="round" stroke-linejoin="round" stroke-width="1.8" d="M163.218 228.427l-3.2-19.972s-.572-2.378-3.29-1.09" transform="translate(-469 -454) translate(469 455)"/>
                <path stroke="#DEB69C" stroke-linecap="round" stroke-linejoin="round" stroke-width="1.8" d="M151.018 221.803s8.985 8.955 18.215 7.99" transform="translate(-469 -454) translate(469 455)"/>
            </g>
        </g>
    </g>
</svg>
