<svg xmlns="http://www.w3.org/2000/svg" xmlns:xlink="http://www.w3.org/1999/xlink" width="401" height="304" viewBox="0 0 401 304">
    <style>
        <![CDATA[#ezd2b1t8f7q29_ts {animation: ezd2b1t8f7q29_ts__ts 3000ms linear 1 normal forwards;animation-delay: 0.5s;}@keyframes ezd2b1t8f7q29_ts__ts { 0% {transform: translate(307.482346px,57.690319px) scale(0.100000,0.100000);animation-timing-function: cubic-bezier(0.680000,-0.550000,0.265000,1.550000)} 23.333333% {transform: translate(307.482346px,57.690319px) scale(1,1)} 100% {transform: translate(307.482346px,57.690319px) scale(1,1)} }]]>
    </style>
    <defs>
        <path id="dwcsy7grfa" d="M0.54 0.024L35.261 0.024 35.261 30.832 0.54 30.832z"/>
        <path id="l6ssh6aglc" d="M0 303.695L400.261 303.695 400.261 0 0 0z"/>
    </defs>
    <g fill="none" fill-rule="evenodd">
        <g>
            <g transform="translate(-492 -455) translate(492 455)">
                <path fill="#FFD1B5" d="M212.685 297.01l17.606-20.263c1.457-1.677 4.022-1.857 5.699-.4 1.677 1.458 1.857 4.022.4 5.7l-17.606 20.262c-1.457 1.678-4.022 1.857-5.7.4-1.677-1.457-1.857-4.022-.4-5.699"/>
                <path fill="#FFD1B5" d="M223.245 295.82l17.606-20.262c1.457-1.677 4.022-1.857 5.7-.4 1.676 1.458 1.857 4.022.4 5.7l-17.607 20.263c-1.457 1.677-4.022 1.857-5.699.399-1.677-1.457-1.857-4.022-.4-5.7M205.31 294.093l17.606-20.263c1.457-1.677 4.022-1.857 5.699-.4 1.677 1.458 1.858 4.022.4 5.7l-17.606 20.262c-1.457 1.678-4.022 1.857-5.7.4-1.676-1.457-1.856-4.022-.4-5.699"/>
                <path fill="#FFD1B5" d="M202.553 286.968l17.606-20.263c1.457-1.677 4.022-1.857 5.698-.4 1.678 1.458 1.858 4.022.4 5.7l-17.606 20.263c-1.457 1.677-4.022 1.857-5.699.399-1.677-1.457-1.857-4.022-.4-5.7"/>
                <path fill="#FFD1B5" d="M202.536 276.712l17.606-20.263c1.457-1.677 4.022-1.857 5.699-.4 1.677 1.458 1.857 4.022.4 5.7l-17.606 20.263c-1.457 1.677-4.022 1.857-5.7.399-1.676-1.457-1.857-4.022-.4-5.7"/>
                <path fill="#E8E8E8" d="M372.609 174.165s-1.324 6.357 2.517 7.152c0 0 2.913.927 4.503-3.576 0 0 1.986-8.344 7.946-8.874 0 0 4.503-.794 6.357 3.841 0 0 1.589 4.635-.927 11.39 0 0-5.298 15.893-15.363 25.429H335.525s-10.86-19.204-6.886-33.508c0 0 .795-2.516 4.238-2.384 0 0 3.709.795 3.046 3.708 0 0-.132 2.252 2.384 1.193 0 0 1.258-.393.795-3.444 0 0 3.31-38.672 22.779-50.062 0 0 9.536-6.622 16.688-1.06 0 0 5.297 4.106 2.914 15.761 0 0-2.252 12.449-4.636 17.614 0 0-3.841 12.317-4.238 16.82"/>
                <g transform="translate(365 178.695)">
                    <mask id="ojqh3upfcb" fill="#fff">
                        <use xlink:href="#dwcsy7grfa"/>
                    </mask>
                    <path fill="#D8D8D8" d="M29.4 5.589c-8.22.196-9.784 9.588-9.784 9.588-.04-.246-.08-.487-.121-.725l-.04-.222-.09-.49-.046-.241c-.03-.16-.062-.316-.094-.471l-.042-.208c-.093-.441-.19-.866-.29-1.277l-.046-.187c-.036-.144-.072-.286-.11-.427l-.052-.203-.113-.408c-.016-.06-.032-.118-.05-.176-.107-.378-.22-.741-.333-1.092l-.053-.157-.124-.366-.06-.168c-.042-.12-.085-.237-.128-.353l-.053-.143c-.121-.32-.246-.628-.372-.923l-.055-.127c-.046-.105-.091-.208-.138-.31l-.064-.14c-.046-.1-.093-.2-.14-.297-.02-.038-.038-.077-.056-.115-.131-.268-.265-.523-.4-.768-.02-.034-.038-.067-.056-.101l-.15-.26-.064-.11-.151-.248-.057-.091c-.138-.22-.277-.428-.418-.626-.02-.026-.038-.052-.056-.078l-.157-.213-.066-.086c-.052-.07-.105-.136-.157-.202-.02-.023-.037-.047-.056-.07-.142-.175-.285-.341-.428-.497l-.056-.06c-.053-.057-.106-.113-.16-.168l-.064-.066-.161-.16-.054-.052c-.143-.135-.286-.263-.428-.382l-.054-.045c-.053-.044-.106-.087-.16-.128l-.063-.05-.157-.118-.055-.04c-.14-.101-.28-.194-.417-.281l-.052-.032c-.052-.032-.103-.063-.155-.093l-.06-.035c-.051-.03-.102-.057-.153-.085L12.43.779c-.134-.071-.267-.136-.398-.195l-.05-.022C11.935.54 11.886.519 11.838.5l-.058-.024c-.047-.02-.095-.038-.142-.055L11.589.4c-.126-.045-.25-.085-.37-.122-.015-.004-.03-.01-.046-.013-.044-.013-.088-.026-.131-.037l-.055-.015-.125-.031-.048-.011c-.113-.026-.223-.047-.33-.066l-.042-.007-.115-.017-.05-.007L10.17.06l-.042-.004c-.098-.011-.191-.02-.281-.024L9.809.03 9.715.027 9.673.026l-.09-.002H9.513c-.053 0-.104.002-.153.003h-.03l-.15.01c-.01 0-.02 0-.03.002L9.017.05h-.001l-.114.015-.021.002-.086.014c-.005 0-.01.002-.014.003l-.056.01-.011.002-.038.009c-.005 0-.006 0-.01.002-.003 0-.005 0-.006.002h-.002c-2.57 0-4.275 1.31-5.383 2.786-.08.105-.155.21-.228.318-.293.426-.538.859-.741 1.272-.662 1.343-.888 2.473-.888 2.473-.386 1.712-.63 3.335-.761 4.869-.037.438-.065.868-.084 1.292-.01.21-.017.42-.023.629-.01.415-.012.823-.007 1.224v.016c.032 2.2.299 4.179.7 5.93.044.192.09.38.137.567 1.557 6.167 4.734 9.345 4.734 9.345H28.03c1.59-1.834 2.855-3.974 3.843-6.05.099-.207.195-.414.288-.62.28-.618.535-1.227.767-1.816.078-.197.153-.391.225-.583.144-.384.279-.757.404-1.118.124-.361.239-.71.345-1.041.105-.332.202-.648.289-.945.48-1.634.688-2.698.688-2.698 2.152-10.371-5.48-10.371-5.48-10.371" mask="url(#ojqh3upfcb)"/>
                </g>
                <path fill="#FFF" d="M194.773 214.314l3.842 47.77 14.07-1.122-11.525-98.932s-1.272-5.21-1.302-5.987c-.03-.776-.93-3.677-.93-3.677l-5.298-3.463-2.053-2.97 3.196 68.381"/>
                <path fill="#C9002E" d="M192.852 159.373L191.577 154.075 191.577 149.215 199.485 150.14 202.131 149.484 200.539 154.871 200.289 158.105"/>
                <path fill="#0F1D21" d="M364.013 218.625c0 24.01-73.523 43.474-164.219 43.474S35.575 242.635 35.575 218.625c0-24.01 73.523-43.474 164.219-43.474s164.219 19.464 164.219 43.474"/>
                <mask id="ldimcm41wd" fill="#fff">
                    <use xlink:href="#l6ssh6aglc"/>
                </mask>
                <path fill="#FF365D" d="M143.12 247.564L262.791 247.564 262.791 163.778 143.12 163.778z" mask="url(#ldimcm41wd)"/>
                <path stroke="#FF365D" d="M143.12 247.564L262.791 247.564 262.791 163.778 143.12 163.778z" mask="url(#ldimcm41wd)"/>
                <path fill="#B52237" d="M125.405 69.957s7.39 31.446 139.736 19.858l-17.2-10.432-95.374-19.672s-1.743 2.241-4.233 2.74c-2.49.497-22.929 7.506-22.929 7.506" mask="url(#ldimcm41wd)"/>
                <path fill="#29515A" d="M256.085 150.737c4.054-19.124-6.592-27.766-6.592-27.766-5.032-3.967-6.512-28.41-6.512-28.41-4.952-64.047-49.767-58.701-49.767-58.701-26.194-2.761-40.57 19.865-40.57 19.865-16.137 27.262-.654 47.859-.654 47.859s6.77 5.717 3.654 22.879c0 0-7.363 23.172 12.323 31.824l57.246 11.028 25.38-3.59 6.261-2.752-.769-12.236z" mask="url(#ldimcm41wd)"/>
                <path fill="#FF365D" d="M173.31 145.492c.255-8.276-15.79-18.699-15.79-18.699 14.723-6.633 34.353-7.352 34.353-7.352 1.483.398 12.902 21.26 12.902 21.26l-31.464 4.791z" mask="url(#ldimcm41wd)"/>
                <path stroke="#FF365D" d="M173.31 145.492c.255-8.276-15.79-18.699-15.79-18.699 14.723-6.633 34.353-7.352 34.353-7.352 1.483.398 12.902 21.26 12.902 21.26l-31.464 4.791z" mask="url(#ldimcm41wd)"/>
                <path fill="#E8E8E8" d="M30.128 273.573s-14.837-19.88-17.65-44.512c0 0-.194-7.758 4.46-7.176 0 0 4.268.194 7.856 7.273 0 0 .97 3.2 4.364 1.26 0 0 1.745-1.648.194-4.363 0 0-6.497-9.213-8.05-16.195 0 0-1.55-9.407 6.207-10.086 0 0 13.674-.194 18.523 14.353 0 0 1.26 7.66 6.4 7.273 0 0 3.976.485 3.103-5.625 0 0-1.648-7.661 3.88-8.63 0 0 14.546-3.104 11.249 12.994 0 0-7.08 38.888-14.256 53.434h-26.28z" mask="url(#ldimcm41wd)"/>
                <path fill="#D8D8D8" d="M13.918 272.947S-3.385 261.7.595 241.802c0 0 1.298-6.489 10.295-2.509 0 0 8.305 5.883 9.17 13.323 0 0-1.384-13.842 7.787-12.63 0 0 7.613 1.556 1.903 15.572 0 0 2.077-3.288 6.056-2.769 0 0 6.922.173 3.115 12.631 0 0-2.942 7.613-5.018 8.652H15.562l-1.644-1.125z" mask="url(#ldimcm41wd)"/>
                <g id="ezd2b1t8f7q29_ts" transform="translate(307.482346,57.690319)" style="transform:scale(0.100000,0.100000)">
                    <path
                        id="ezd2b1t8f7q29"
                        d="M291.291000,79.650000C295.458000,81.555000,297.591000,86.050000,295.686000,90.217000C293.781000,94.384000,288.986000,95.712000,284.819000,93.807000C280.652000,91.902000,278.569000,87.430000,280.474000,83.263000C282.379000,79.096000,287.124000,77.745000,291.291000,79.650000M307.264000,53.873000C313.878000,52.283000,317.690000,51.113000,319.710000,46.695000C321.960000,41.775000,319.083000,36.515000,313.561000,33.991000C308.742000,31.787000,304.579000,32.130000,300.287000,35.145000C297.790000,36.492000,296.149000,36.895000,294.041000,35.931000C290.877000,34.485000,290.153000,31.423000,291.416000,28.661000C292.931000,25.348000,296.496000,22.729000,300.724000,21.445000C305.812000,20.008000,312.134000,20.652000,319.262000,23.911000C332.465000,29.948000,338.508000,41.026000,333.390000,52.221000C329.833000,60.003000,323.614000,62.319000,315.008000,64.150000C308.439000,65.639000,305.979000,66.639000,302.898000,70.328000C300.288000,72.716000,298.064000,74.128000,294.550000,72.521000C290.885000,70.846000,289.980000,67.518000,291.448000,64.305000C294.156000,58.381000,298.053000,56.095000,307.264000,53.873000"
                        transform="translate(-307.482346,-57.690319)"
                        fill="rgb(252,45,82)"
                        fill-rule="evenodd"
                        stroke="none"
                        stroke-width="1"
                    />
                </g>
                <path fill="#FFD1B5" d="M215.896 109.967c-5.527 10.721-15.58 17.589-26.533 16.792-15.66-1.139-27.23-17.511-25.843-36.566 1.386-19.055 15.204-33.579 30.863-32.44 15.659 1.139 27.229 17.51 25.843 36.566" mask="url(#ldimcm41wd)"/>
                <path fill="#29515A" d="M162.617 85.457s20.629-2.46 22.066-17.04c0 0 14.133 19.697 36.132 18.804l17.727-3.89S212.947 44.3 211.44 44.151c-1.508-.15-12.516-1.234-18.323-1.807-5.809-.572-20.338-2.51-21.74 1.412-1.401 3.922-8.376 12.88-8.376 12.88l-7.567 14.99s-.924 5.06 3.13 9.446l4.054 4.385z" mask="url(#ldimcm41wd)"/>
                <path fill="#FFD1B5" d="M213.465 97.86c.22-.371-.625-6.042.903-7.092 1.527-1.05 4.728-5.17 4.728-5.17.303-.17 4.778-5.842 10.374-1.662 0 0 6.444 8.12-8.515 16.304 0 0-2.908 3.53-1.208 14.542l3.268 21.167 12.453 20.872-25.096 10.288-25.226-21.837-.816-23.847s3.684-24.305 4.71-27.386" mask="url(#ldimcm41wd)"/>
                <path fill="#E6BDA2" d="M184.405 126.443s13.213.25 17.512-3.104c0 0-17.205 13.052-16.993 18.254l-.52-15.15z" mask="url(#ldimcm41wd)"/>
                <path fill="#FFF" d="M206.425 92.256c0 3.206-2.008 5.806-4.485 5.806-2.476 0-4.484-2.6-4.484-5.806s2.008-5.806 4.484-5.806c2.477 0 4.485 2.6 4.485 5.806" mask="url(#ldimcm41wd)"/>
                <path fill="#1D1D1B" d="M203.623 90.572c.95.95.966 2.473.036 3.403-.93.93-2.453.914-3.403-.036-.95-.95-.966-2.473-.036-3.403.93-.93 2.453-.914 3.403.036" mask="url(#ldimcm41wd)"/>
                <path fill="#B52237" d="M238.939 52.483c-34.766-6.646-65.842-9.226-79.706-10.12-2.871 5.76-3.837 10.002-3.837 10.002l-.416.243c15.155 2.161 55.694 8.144 84.704 14.406.636-4.929.228-9.876-.745-14.53" mask="url(#ldimcm41wd)"/>
                <path fill="#FC2D52" d="M227.85 26.967c-35.199 2.788-46.62-8.265-46.62-8.265-11.667 6.635-18.36 16.365-21.997 23.661 13.863.894 44.94 3.474 79.705 10.12-2.949-14.106-11.088-25.516-11.088-25.516M154.98 52.609l-29.575 17.349c42.154-7.261 139.737 19.858 139.737 19.858l-25.558-22.073c.037-.242.068-.485.1-.728-29.01-6.263-69.55-12.245-84.704-14.406" mask="url(#ldimcm41wd)"/>
                <g mask="url(#ldimcm41wd)">
                    <g>
                        <path fill="#FF365D" d="M.061 73.157c.442-35.131 21.394-54.761 21.394-54.761C39.278 1.221 75.346 4.677 75.346 4.677s1.016 11.184 22.356 10.553c1.741-.052 16.568-1.075 19.365-12.69 0 0 32.145-8.147 44.683 6.133 0 0 36.657 34.95 41.07 71.598 0 0 8.27 29.155-13.809 43.874l-53.679 37.957-40.289-38.946 42.417-27.943s12.704-20.024 2.967-33.963" transform="translate(109 133.695)"/>
                        <path stroke="#FF365D" stroke-linecap="round" stroke-linejoin="round" d="M.061 73.157c.442-35.131 21.394-54.761 21.394-54.761C39.278 1.221 75.346 4.677 75.346 4.677s1.016 11.184 22.356 10.553c1.741-.052 16.568-1.075 19.365-12.69 0 0 32.145-8.147 44.683 6.133 0 0 36.657 34.95 41.07 71.598 0 0 8.27 29.155-13.809 43.874l-53.679 37.957-40.289-38.946 42.417-27.943s12.704-20.024 2.967-33.963" transform="translate(109 133.695)"/>
                    </g>
                </g>
                <path fill="#FF365D" d="M193.048 259.986h62.642s20.667-51.958 15.103-58.177c-5.564-6.22-22.912-23.566-22.912-23.566l-54.833 81.743z" mask="url(#ldimcm41wd)"/>
                <path stroke="#FF365D" d="M193.048 259.986h62.642s20.667-51.958 15.103-58.177c-5.564-6.22-22.912-23.566-22.912-23.566l-54.833 81.743z" mask="url(#ldimcm41wd)"/>
                <path fill="#FFF" d="M193.37 152.198l1.207-5.964-8.322 7.64c2.114-.378 5.129-.885 7.437-1.269-.105-.173-.213-.31-.322-.407" mask="url(#ldimcm41wd)"/>
                <path fill="#BA0029" d="M193.692 152.605c-2.309.384-5.323.891-7.437 1.268l.02.034-.119 1.154-6.347 61.33s1.347 16.07 6.444 20.532c0 0 11.05-11.303 12.427-17.399 0 0-.467-28.52-2.058-48.482-.724-9.078-1.68-16.385-2.93-18.437" mask="url(#ldimcm41wd)"/>
                <path stroke="#B52237" stroke-linecap="round" stroke-linejoin="round" d="M222.117 30.993s5.85 9.98 2.02 15.97M214.872 30.993s3.396 8.604 0 14.038M207.626 30.993s1.898 8.119-1.202 12.663M199.086 29.408s1.075 12.227-1.63 14.248M191.873 28.05s.13 10.867-2.586 13.811M184.33 27.456s25.54 11.33 46.273 8.137M186.333 34.955s21.133 7.408 43.632 7.408" mask="url(#ldimcm41wd)"/>
                <path fill="#DE2946" d="M238.542 167.109L261.618 214.996 239.474 230.277z" mask="url(#ldimcm41wd)"/>
                <g mask="url(#ldimcm41wd)">
                    <g>
                        <path fill="#FF365D" d="M4.774 30.73c-3-3.567-3.882-6.875-3.882-6.875C8.956 1.738 38.905.125 38.905.125c-4.377 11.29 1.355 14.852 1.355 15.543l-9.703 20.787c18.971 6.427 41.241 14.24 42.234 15.828" transform="translate(190 119.695)"/>
                        <path stroke="#FF365D" d="M4.774 30.73c-3-3.567-3.882-6.875-3.882-6.875C8.956 1.738 38.905.125 38.905.125c-4.377 11.29 1.355 14.852 1.355 15.543l-9.703 20.787c18.971 6.427 41.241 14.24 42.234 15.828" transform="translate(190 119.695)"/>
                    </g>
                </g>
                <path fill="#DE2946" d="M163.407 167.109L155.342 200.099 161.289 201.389z" mask="url(#ldimcm41wd)"/>
                <path fill="#1D1D1B" d="M28.134 117.682C11.212 72.701 33.958 22.518 78.94 5.596c44.981-16.922 95.163 5.825 112.086 50.806 16.921 44.981-5.825 95.163-50.806 112.085-44.98 16.923-95.164-5.824-112.086-50.805" mask="url(#ldimcm41wd)"/>
                <path fill="#FFF" d="M81.913 13.5c-1.326.498-2.63 1.03-3.912 1.592 39.552-12.536 82.437 7.965 97.219 47.256 14.78 39.29-3.958 82.974-41.964 99.617 1.334-.423 2.665-.882 3.99-1.38 40.618-15.28 61.157-60.594 45.876-101.21C167.842 18.758 122.529-1.78 81.912 13.5" mask="url(#ldimcm41wd)"/>
                <path fill="#FFD1B5" d="M175.457 55.401C157.314 17.545 117.553 2.557 78 15.092c-38.006 16.642-56.745 60.326-41.963 99.617C50.818 154 93.704 174.5 133.256 161.964c44.26-15.817 61.305-66.702 42.2-106.563" mask="url(#ldimcm41wd)"/>
                <path fill="#FFF" d="M151.516 64.408c-2.487-6.611.856-13.986 7.467-16.473 6.611-2.487 13.986.856 16.473 7.466 2.487 6.61-.856 13.987-7.467 16.474-6.61 2.487-13.986-.856-16.473-7.467M156.49 90.443c-.877-2.332.302-4.934 2.635-5.812 2.333-.877 4.935.302 5.811 2.635.879 2.332-.302 4.934-2.633 5.812-2.333.877-4.935-.302-5.813-2.635" mask="url(#ldimcm41wd)"/>
                <path fill="#1D1D1B" d="M202.328 228.585L192.503 234.533 147.316 159.899 157.14 153.951z" mask="url(#ldimcm41wd)"/>
                <path stroke="#1D1D1B" stroke-linecap="round" stroke-linejoin="round" stroke-width="3" d="M83.667 69.707s-2.11 1.919-7.78-4.466M82.63 78.088s-9.35.987-11.115-3.88" mask="url(#ldimcm41wd)"/>
                <path fill="#FFF" d="M136.415 82.027c9.222 24.513 5.928 48.437-7.357 53.434-13.285 4.998-31.531-10.822-40.752-35.335-9.223-24.513-5.93-48.436 7.357-53.434 13.285-4.998 31.53 10.822 40.752 35.335" mask="url(#ldimcm41wd)"/>
                <path fill="#1D1D1B" d="M125.13 86.272c4.897 13.014 3.148 25.714-3.905 28.368-7.052 2.653-16.74-5.746-21.635-18.759-4.896-13.014-3.147-25.715 3.906-28.368 7.053-2.653 16.739 5.745 21.635 18.76" mask="url(#ldimcm41wd)"/>
                <path fill="#AD0023" d="M186.207 154.395c2.34-.133 5.077 1.324 5.077 1.324 2.826 1.678 4.866 10.875 4.866 10.875s-.888-13.262-2.458-13.99l-7.437 1.27-.048.52z" mask="url(#ldimcm41wd)"/>
                <path fill="#DE2946" d="M230.26 135.364s-17.315 5.654-22.49 14.69c0 0 17.295-12.668 28.746-15.602l-6.256.912z" mask="url(#ldimcm41wd)"/>
                <path fill="#FFD1B5" d="M207.934 220.22h-31.492c-2.607 0-4.739-2.132-4.739-4.74 0-2.605 2.132-4.738 4.74-4.738h31.491c2.607 0 4.74 2.133 4.74 4.739 0 2.607-2.133 4.74-4.74 4.74" mask="url(#ldimcm41wd)"/>
                <path fill="#FFD1B5" d="M211.026 228.996h-31.492c-2.607 0-4.74-2.133-4.74-4.74 0-2.606 2.133-4.739 4.74-4.739h31.492c2.607 0 4.74 2.133 4.74 4.74 0 2.606-2.133 4.74-4.74 4.74" mask="url(#ldimcm41wd)"/>
                <path fill="#FFD1B5" d="M206.838 236.92h-31.492c-2.607 0-4.74-2.132-4.74-4.74 0-2.605 2.133-4.738 4.74-4.738h31.492c2.606 0 4.739 2.133 4.739 4.739 0 2.607-2.133 4.74-4.74 4.74" mask="url(#ldimcm41wd)"/>
                <path fill="#FFD1B5" d="M201.299 244.3h-31.492c-2.607 0-4.74-2.133-4.74-4.74 0-2.606 2.133-4.739 4.74-4.739h31.492c2.606 0 4.739 2.133 4.739 4.74 0 2.606-2.133 4.74-4.74 4.74" mask="url(#ldimcm41wd)"/>
                <path fill="#FF365D" d="M109.061 206.852s-.305 76.302 84.075 49.379l-1.927-53.085s-30.203.259-37.474.125c-.686-.013-15.358-8.523-16.206-9.029-.847-.505-11.787-1.507-12.095-1.276-.309.231-16.373 13.886-16.373 13.886" mask="url(#ldimcm41wd)"/>
                <path stroke="#FF365D" d="M109.061 206.852s-.305 76.302 84.075 49.379l-1.927-53.085s-30.203.259-37.474.125c-.686-.013-15.358-8.523-16.206-9.029-.847-.505-11.787-1.507-12.095-1.276-.309.231-16.373 13.886-16.373 13.886z" mask="url(#ldimcm41wd)"/>
                <path stroke="#DEB69C" stroke-linecap="round" stroke-linejoin="round" stroke-width="1.8" d="M209.899 219.517L197.932 219.517M210.426 228.996L199.401 228.996M205.23 236.921L200.161 236.921M212.685 276.058L206.719 282.925M216.235 282.091L206.038 293.828M221.851 288.127L212.091 299.441M227.551 292.736L222.264 298.822" mask="url(#ldimcm41wd)"/>
                <path stroke="#AF2546" stroke-linecap="round" stroke-linejoin="round" stroke-width="1.8" d="M159.347 183.007L155.341 200.098 170.024 203.285M228.906 119.82s-28.786 1.25-38.013 23.73c0 0 .318 3.514 3.026 5.939l-.55 2.71s1.153.983 1.634 4.227M234.558 133.92s27.16-5.89 38.672 9.225l15.899 19.18M251.832 289.878L220.142 256.449M191.21 203.146l.882 24.312.887 24.432.157 4.341s-29.745 11.697-52.39 2.436M238.542 167.109L261.618 214.996 209.702 253.124M181.148 259.505L179.81 216.392" mask="url(#ldimcm41wd)"/>
            </g>
        </g>
    </g>
</svg>
