<svg xmlns="http://www.w3.org/2000/svg" width="30" height="30" viewBox="0 0 30 30">
    <g fill="none" fill-rule="evenodd" stroke-linecap="round" stroke-linejoin="round">
        <g stroke="#202429" stroke-width=".8">
            <g>
                <g>
                    <path d="M6.315 4.21V3.13C6.315 1.4 7.73 0 9.474 0c1.743 0 3.157 1.401 3.157 3.129V4.21M7.842 11.26c-3.243-.518-5.684-2.77-5.684-5.47 0-.134.014-.264.025-.395-.1.168-.174.354-.206.558L.546 15.015c-.151.959.589 1.826 1.56 1.826H16.42c.97 0 1.712-.867 1.56-1.826L16.55 5.953c-.032-.204-.107-.39-.207-.558.012.131.026.26.026.394 0 2.7-2.441 4.953-5.684 5.47M16.343 5.394c-.278-.465-.782-.774-1.354-.774H3.536c-.57 0-1.075.31-1.352.774" transform="translate(-10 -327) translate(0 316) translate(16 17)"/>
                    <path d="M9.344 9.473h-.162c-.737 0-1.34.602-1.34 1.339v1.11c0 .737.603 1.34 1.34 1.34h.162c.737 0 1.34-.603 1.34-1.34v-1.111c0-.736-.603-1.338-1.34-1.338z" transform="translate(-10 -327) translate(0 316) translate(16 17)"/>
                </g>
            </g>
        </g>
    </g>
</svg>
