<svg width="24" height="24" xmlns="http://www.w3.org/2000/svg">
  <g fill-rule="evenodd" fill="none">
   <path d="m3.18749,2.62499l18,0l0,18l-18,0l0,-18z"/>
   <path fill="#E6E6E6" d="m12.18849,17.52699l-4.1,1.542c-0.583,0.22 -1.206,-0.222 -1.173,-0.835l0.23,-4.299l-2.764,-3.347c-0.393,-0.476 -0.155,-1.192 0.449,-1.35l4.242,-1.115l2.391,-3.61c0.342,-0.515 1.11,-0.515 1.45,0l2.392,3.61l4.242,1.115c0.604,0.158 0.842,0.874 0.449,1.35l-2.765,3.347l0.23,4.3c0.034,0.612 -0.589,1.054 -1.172,0.834l-4.1,-1.542l-0.001,0z"/>
  </g>
</svg>