<svg xmlns="http://www.w3.org/2000/svg" width="30" height="30" viewBox="0 0 30 30">
    <g fill="none" fill-rule="evenodd" stroke-linecap="round" stroke-linejoin="round">
        <g stroke="#202429" stroke-width=".75">
            <g>
                <g>
                    <path d="M5.06 8.439L5.06 10.34M7.957 8.439L7.957 10.34M3.817 16.26l-1.071-4.708c-.03-.386.483-.71 1.126-.71H8.84c.643 0 1.157.324 1.126.71L8.894 16.26M8.911 0H3.838c-.362 0-.687.198-.813.497L.69 6.017c-.266.627.136 1.326.873 1.498.868.204 2.1.435 3.534.545.797.062 1.663.076 2.557.035 1.163-.054 2.379-.211 3.593-.536.714-.19 1.094-.88.835-1.494L9.724.497C9.598.197 9.274 0 8.911 0zM11.093 17.452c-.085-.48-.458-.826-.892-.826H2.596c-.434 0-.807.346-.892.826l-.127 2.03h9.644l-.128-2.03z" transform="translate(-10 -755) translate(0 744) translate(18.5 16)"/>
                </g>
            </g>
        </g>
    </g>
</svg>
