<svg xmlns="http://www.w3.org/2000/svg" width="22" height="19" viewBox="0 0 22 19">
  <path fill="none" fill-rule="evenodd" stroke="#FFF" d="M20.084 9.032c-1.24 2.042-4.271 5.135-9.084 9.307-4.813-4.172-7.844-7.265-9.075-9.293C1.338 8.148 1 7.07 1 5.906c0-1.497.56-2.854 1.471-3.836C3.37 1.102 4.608.5 5.978.5c1.393 0 2.923.845 4.628 3.022.14.178.271.352.394.524.123-.172.254-.347.394-.524C13.099 1.345 14.629.5 16.022.5c1.37 0 2.61.602 3.507 1.57.91.982 1.471 2.34 1.471 3.837 0 1.163-.338 2.241-.916 3.125z"/>
</svg>
