<svg xmlns="http://www.w3.org/2000/svg" xmlns:xlink="http://www.w3.org/1999/xlink" width="192" height="189" viewBox="0 0 192 189">
    <defs>
        <path id="wj2ndcogra" d="M0.076 0.035L6.541 0.035 6.541 7.7 0.076 7.7z"/>
        <path id="a8ma05g8vc" d="M0.008 0.058L1.328 0.058 1.328 7.7 0.008 7.7z"/>
    </defs>
    <g fill="none" fill-rule="evenodd">
        <g>
            <g>
                <g transform="translate(-864 -463) translate(864 463) translate(.55)">
                    <ellipse cx="95.75" cy="95.65" fill="#FAFAFA" rx="90.75" ry="89.65"/>
                    <circle cx="5.5" cy="31.6" r="5.5" fill="#FFF" stroke="#DDDBDB" stroke-width="1.2"/>
                    <g transform="translate(54 47)">
                        <rect width="80.4" height="131" x=".5" y=".5" fill="#FFF" stroke="#000" rx="6"/>
                        <path fill="#000" d="M.55 19.8H80.85V20.900000000000002H.55zM1.1 111.65H81.39999999999999V112.75H1.1z"/>
                        <circle cx="40.15" cy="122.1" r="4.45" fill="#FFF" stroke="#000"/>
                        <g>
                            <path fill="#000" d="M4.181 5.458c-.017.13-.057.253-.117.364l-.001.002c-.016.03-.033.058-.052.085-.19.283-.514.47-.89.476H1.308V4.253h1.813c.034 0 .068.003.1.006h.011c.499.058.886.433.95.915.006.045.01.092.01.14 0 .049-.005.097-.01.144zM1.308 1.315h1.39c.453 0 .808.352.808.8 0 .454-.362.823-.808.823h-1.39V1.315zm3.12 2.021c.253-.359.387-.78.387-1.22C4.815.948 3.865 0 2.698 0H.648C.292 0 0 .293 0 .652v6.396c0 .354.297.652.649.652.008 0 .016-.002.021-.004.007.003.014.004.022.004h2.43C4.433 7.7 5.5 6.63 5.5 5.313c0-.794-.4-1.529-1.073-1.977zM20.033 4.603L20.9 2.47l.867 2.133h-1.734zM21.571.415V.413c-.117-.262-.383-.424-.669-.412-.283-.011-.56.157-.673.414L17.641 6.81c-.06.162-.054.337.017.494.077.168.22.296.405.361.077.024.153.035.238.035.29 0 .548-.162.659-.414l.56-1.377h2.772l.56 1.376c.097.248.357.415.647.415.093 0 .179-.013.24-.036.183-.064.326-.192.403-.36.071-.157.077-.332.016-.495L21.571.415z" transform="translate(15.95 55)"/>
                            <g transform="translate(15.95 55) translate(27.5)">
                                <mask id="9mu82j9f9b" fill="#fff">
                                    <use xlink:href="#wj2ndcogra"/>
                                </mask>
                                <path fill="#000" d="M5.826.067c-.388 0-.703.289-.703.644v4.331L1.351.295C1.133.015.69-.05.365.152.174.28.063.492.077.712v6.332c0 .362.32.656.715.656.38 0 .703-.3.703-.656V2.681l3.73 4.707c.018.03.045.055.069.076.135.148.334.236.532.236.387 0 .715-.3.715-.656V.711c0-.35-.328-.644-.715-.644" mask="url(#9mu82j9f9b)"/>
                            </g>
                            <path fill="#000" d="M39.607 6.385h-.713v-5.07h.713c1.598 0 2.899 1.132 2.899 2.524 0 1.417-1.274 2.535-2.9 2.546m0-6.385h-1.465c-.415 0-.741.286-.741.652v6.396c0 .36.332.652.74.652h1.467C42.029 7.7 44 5.968 44 3.84 44 1.721 42.03 0 39.607 0" transform="translate(15.95 55)"/>
                            <g transform="translate(15.95 55) translate(47.3)">
                                <mask id="yh4rzs0dgd" fill="#fff">
                                    <use xlink:href="#a8ma05g8vc"/>
                                </mask>
                                <path fill="#000" d="M.663.058C.296.058.008.342.008.705v6.348c0 .363.288.647.655.647.367 0 .665-.29.665-.647V.705c0-.357-.298-.647-.665-.647" mask="url(#yh4rzs0dgd)"/>
                            </g>
                            <path fill="#000" d="M11.773 3.437H10.19V1.315h1.583c.627 0 1.137.48 1.137 1.072 0 .578-.51 1.05-1.137 1.05m2.527-1.05C14.3 1.07 13.166 0 11.773 0H9.489C9.103 0 8.8.286 8.8.652v6.396c0 .36.31.652.69.652.386 0 .7-.293.7-.652V4.751l.231.001c.26.002.663.003.857-.001.265-.007.416-.003.662.069.18.052.356.142.51.262.114.089.192.176.237.266.07.137.073.299.067.439-.013.3-.01.606-.008.901l.002.36c0 .36.309.652.69.652.386 0 .7-.293.7-.652V5.471c0-.229-.062-.451-.195-.7-.046-.084-.096-.165-.15-.239-.098-.137-.216-.258-.359-.37.56-.46.866-1.089.866-1.775" transform="translate(15.95 55)"/>
                        </g>
                    </g>
                    <g>
                        <path fill="#FFF" stroke="#000" stroke-width="1.1" d="M18.385 34.663l36.775 19.85c3.143 1.696 7.065.585 8.85-2.508L74.348 34.1c1.822-3.157.74-7.193-2.416-9.016l-.165-.092-36.775-19.85c-3.142-1.696-7.065-.584-8.85 2.509L15.804 25.555c-1.822 3.157-.74 7.194 2.416 9.016.055.032.11.063.165.092z" transform="translate(107.2 126.5)"/>
                        <path fill="#FFF" stroke="#000" stroke-width="1.1" d="M19.541 6.422l50.74 16.486c3.466 1.127 5.363 4.85 4.237 8.317l-6.39 19.668c-1.127 3.466-4.85 5.363-8.317 4.237L9.07 38.644c-3.466-1.126-5.363-4.85-4.237-8.317l6.39-19.667c1.127-3.467 4.85-5.364 8.317-4.238z" transform="translate(107.2 126.5)"/>
                        <path fill="#FFF" stroke="#000" stroke-width="1.1" d="M75.68 14.552c3.645 0 6.6 2.954 6.6 6.6v13.365h0c-2.339 0-4.235 1.896-4.235 4.235 0 2.338 1.896 4.235 4.235 4.235v12.155c0 3.645-2.955 6.6-6.6 6.6H6.6c-3.645 0-6.6-2.955-6.6-6.6V42.987h0c2.339 0 4.235-1.897 4.235-4.235 0-2.34-1.896-4.235-4.235-4.235V21.152c0-3.646 2.955-6.6 6.6-6.6h69.08z" transform="translate(107.2 126.5)"/>
                        <text fill="#000" font-family="NotoSansCJKkr-Regular, Noto Sans CJK KR" font-size="11" transform="translate(107.2 126.5)">
                            <tspan x="18.056" y="42.922">COUPON</tspan>
                        </text>
                    </g>
                    <path fill="#EAE9E9" stroke="#EAE9E9" d="M175-.394h.2c.551 0 1 .447 1 1v10.1c0 .552-.449 1-1 1h-.2c-.553 0-1-.448-1-1V.606c0-.553.447-1 1-1z" transform="rotate(42 175.1 5.656)"/>
                    <path fill="#EAE9E9" stroke="#EAE9E9" d="M175-.394h.2c.551 0 1 .447 1 1v10.1c0 .552-.449 1-1 1h-.2c-.553 0-1-.448-1-1V.606c0-.553.447-1 1-1z" transform="rotate(132 175.1 5.656)"/>
                </g>
            </g>
        </g>
    </g>
</svg>
