<svg xmlns="http://www.w3.org/2000/svg" width="30" height="30" viewBox="0 0 30 30">
    <g fill="none" fill-rule="evenodd" stroke-linecap="round" stroke-linejoin="round">
        <g stroke="#202429" stroke-width=".7">
            <g>
                <g>
                    <path d="M16.585 3.01c-.612-.492-1.524-.417-2.039.168-.514.584-.436 1.457.176 1.95.611.492 1.523.417 2.038-.168.514-.585.435-1.458-.175-1.95zM4.714 3.01c-.611.492-.69 1.365-.175 1.95.514.585 1.426.66 2.038.168.611-.493.69-1.366.175-1.95-.514-.585-1.427-.66-2.038-.168zM8.804 9.282l-4.29 4.044c-.479.502-.752 1.112-.828 1.738h3.545l3.33-3.785-1.757-1.997z" transform="translate(-10 -903) translate(0 892) translate(15 18)"/>
                    <path d="M13.93 7.45c1.536.682 3.417.332 4.56-.966 1.369-1.556 1.16-3.879-.466-5.188-1.626-1.31-4.053-1.11-5.422.446-1.092 1.24-1.176 2.97-.341 4.282l-1.7 1.603 1.756 1.656L13.93 7.45z" transform="translate(-10 -903) translate(0 892) translate(15 18)"/>
                    <path d="M16.608 13.326l-4.29-4.043-1.757-1.656-1.699-1.603c.835-1.313.75-3.041-.342-4.282C7.152.186 4.724-.013 3.098 1.296c-1.626 1.31-1.834 3.632-.466 5.188 1.143 1.299 3.024 1.648 4.56.966l1.612 1.833 1.757 1.996 3.33 3.786h3.545c-.076-.627-.348-1.237-.828-1.74zM16.154 15.068L19.42 15.064M1.49 15.064L4.846 15.068" transform="translate(-10 -903) translate(0 892) translate(15 18)"/>
                </g>
            </g>
        </g>
    </g>
</svg>
