<svg xmlns="http://www.w3.org/2000/svg" width="30" height="30" viewBox="0 0 30 30">
    <g fill="none" fill-rule="evenodd" stroke-linecap="round" stroke-linejoin="round">
        <g stroke="#000" stroke-width=".8">
            <g>
                <g>
                    <g>
                        <path d="M13.03 19.113c.713-.328 1.04-1.164.79-1.915l-3.233-9.72H3.32l-3.238 9.73c-.248.746.083 1.57.784 1.91 0 0 5.13 3.243 12.164-.005z" transform="translate(-10 -91) translate(0 80) translate(10 11) translate(7.833 5.334)"/>
                        <path d="M10.595 7.479l1.053-5.227c.123-.61-.11-1.254-.622-1.602-.356-.24-.757-.425-1.164-.567-.215-.074-.462.032-.53.252C9.03 1.298 8.146 2 7.092 2 6.017 2 5.121 1.276 4.835.286 4.775.073 4.54-.048 4.33.018c-.623.194-1.091.437-1.434.665-.519.343-.754.99-.629 1.603l1.06 5.193M5.881 7.479L4.769 10.936M8.105 7.479L8.892 10.936" transform="translate(-10 -91) translate(0 80) translate(10 11) translate(7.833 5.334)"/>
                    </g>
                </g>
            </g>
        </g>
    </g>
</svg>
