<svg xmlns="http://www.w3.org/2000/svg" width="24" height="24" viewBox="0 0 24 24">
    <g fill="none" fill-rule="evenodd">
        <g>
            <g>
                <path d="M0 0H24V24H0z" transform="translate(-320 -480) translate(320 480)"/>
                <g stroke="#202429" stroke-width="1.5">
                    <path d="M14.5 14.75c.621 0 1.184.252 1.591.659.407.407.659.97.659 1.591s-.252 1.184-.659 1.591c-.407.407-.97.659-1.591.659s-1.184-.252-1.591-.659c-.407-.407-.659-.97-.659-1.591s.252-1.184.659-1.591c.407-.407.97-.659 1.591-.659zm-11-7c.621 0 1.184.252 1.591.659.407.407.659.97.659 1.591s-.252 1.184-.659 1.591c-.407.407-.97.659-1.591.659s-1.184-.252-1.591-.659c-.407-.407-.659-.97-.659-1.591s.252-1.184.659-1.591c.407-.407.97-.659 1.591-.659h0zm11-7c.621 0 1.184.252 1.591.659.407.407.659.97.659 1.591s-.252 1.184-.659 1.591c-.407.407-.97.659-1.591.659s-1.184-.252-1.591-.659c-.407-.407-.659-.97-.659-1.591s.252-1.184.659-1.591c.407-.407.97-.659 1.591-.659z" transform="translate(-320 -480) translate(320 480) translate(3 2)"/>
                    <path stroke-linecap="square" d="M5.456 8.28L11.452 4.575M5.457 11.72L11.452 15.425" transform="translate(-320 -480) translate(320 480) translate(3 2)"/>
                </g>
            </g>
        </g>
    </g>
</svg>
