<svg xmlns="http://www.w3.org/2000/svg" width="64" height="64" viewBox="0 0 64 64">
    <g fill="none" fill-rule="evenodd">
        <g>
            <path fill="#FFF" d="M0 0H1920V1400H0z" transform="translate(-1113 -937)"/>
            <g>
                <g fill="#000">
                    <path d="M32 0c17.673 0 32 14.327 32 32 0 17.673-14.327 32-32 32C14.327 64 0 49.673 0 32 0 14.327 14.327 0 32 0z" transform="translate(-1113 -937) translate(1113 937)"/>
                </g>
                <path fill="#FFF" fill-rule="nonzero" d="M32.46 23.6c1.065 0 2.4-.74 3.195-1.728.72-.895 1.245-2.144 1.245-3.394 0-.17-.015-.34-.045-.478-1.185.046-2.61.818-3.465 1.851-.675.787-1.29 2.021-1.29 3.286 0 .185.03.37.045.432.075.016.195.031.315.031zM28.635 42c1.455 0 2.1-1.003 3.915-1.003 1.845 0 2.25.972 3.87.972 1.59 0 2.655-1.511 3.66-2.992 1.125-1.697 1.59-3.362 1.62-3.44-.105-.03-3.15-1.31-3.15-4.904 0-3.115 2.4-4.519 2.535-4.627-1.59-2.344-4.005-2.406-4.665-2.406-1.785 0-3.24 1.11-4.155 1.11-.99 0-2.295-1.048-3.84-1.048-2.94 0-5.925 2.498-5.925 7.218 0 2.93 1.11 6.03 2.475 8.035 1.17 1.697 2.19 3.085 3.66 3.085z" transform="translate(-1113 -937) translate(1113 937)"/>
            </g>
        </g>
    </g>
</svg>
