<svg xmlns="http://www.w3.org/2000/svg" width="64" height="64" viewBox="0 0 64 64">
    <g fill="none" fill-rule="evenodd">
        <g>
            <path fill="#FFF" d="M0 0H1920V1400H0z" transform="translate(-1021 -937)"/>
            <g transform="translate(-1021 -937) translate(1021 937)">
                <rect width="63.5" height="63.5" x=".25" y=".25" fill="#FFF" stroke="#D3D7DF" stroke-width=".5" rx="31.75"/>
                <path fill="#4285F4" d="M44.567 32.298c0-.929-.083-1.821-.238-2.678H32v5.064h7.045c-.303 1.636-1.225 3.022-2.612 3.95v3.285h4.23c2.476-2.279 3.904-5.635 3.904-9.621z"/>
                <path fill="#34A853" d="M32 45.09c3.535 0 6.498-1.171 8.664-3.17l-4.23-3.285c-1.173.785-2.673 1.25-4.434 1.25-3.41 0-6.296-2.304-7.325-5.398h-4.374v3.392c2.155 4.278 6.582 7.212 11.699 7.212z"/>
                <path fill="#FBBC05" d="M24.675 34.487c-.262-.785-.41-1.624-.41-2.487s.148-1.702.41-2.487V26.12h-4.374c-.886 1.767-1.392 3.767-1.392 5.879 0 2.112.506 4.112 1.392 5.879l4.374-3.392z"/>
                <path fill="#EA4335" d="M32 24.116c1.922 0 3.648.66 5.004 1.957l3.755-3.754c-2.267-2.113-5.23-3.41-8.759-3.41-5.117 0-9.544 2.934-11.699 7.212l4.374 3.392c1.03-3.094 3.915-5.397 7.325-5.397z"/>
            </g>
        </g>
    </g>
</svg>
