<?xml version="1.0" encoding="utf-8"?>
<!-- Generator: Adobe Illustrator 15.0.0, SVG Export Plug-In . SVG Version: 6.00 Build 0)  -->
<!DOCTYPE svg PUBLIC "-//W3C//DTD SVG 1.1//EN" "http://www.w3.org/Graphics/SVG/1.1/DTD/svg11.dtd">
<svg version="1.1" id="Layer_1" xmlns="http://www.w3.org/2000/svg" xmlns:xlink="http://www.w3.org/1999/xlink" x="0px" y="0px"
	 width="174.285px" height="42.822px" viewBox="0 0 174.285 42.822" enable-background="new 0 0 174.285 42.822"
	 xml:space="preserve">
<g>
	<g>
		<path d="M58.958,32.083V11.592c0-1.076,0.868-1.91,1.91-1.91c0.035,0,0.035,0,0.104,0c0,0,0,0,0.035,0H65.8
			c3.646,0,6.599,2.952,6.599,6.598c0,1.494-0.486,2.848-1.32,3.959c2.084,1.32,3.507,3.646,3.507,6.286
			c0,4.133-3.334,7.467-7.432,7.467h-6.147c-0.035,0-0.035-0.035-0.035-0.035c-0.069,0-0.069,0.035-0.104,0.035
			C59.827,33.993,58.958,33.124,58.958,32.083z M62.813,19.094H65.8c1.528,0,2.744-1.285,2.744-2.813s-1.215-2.743-2.744-2.743
			h-2.987V19.094z M62.813,30.138h4.342c1.979-0.034,3.577-1.597,3.577-3.611c0-1.979-1.598-3.542-3.577-3.577h-4.342V30.138z"/>
	</g>
	<g>
		<path d="M92.353,18.469c0,0.972-0.799,1.841-1.842,1.841c-0.798,0-1.493,0.208-2.083,0.66c-0.66,0.417-1.181,1.007-1.598,1.667
			c-0.833,1.111-1.25,2.431-1.424,2.918v6.598c0,1.008-0.868,1.841-1.91,1.841c-1.007,0-1.841-0.833-1.841-1.841V18.469
			c0-1.007,0.834-1.806,1.841-1.806c1.042,0,1.91,0.799,1.91,1.806v0.243c0.208-0.243,0.486-0.521,0.729-0.694
			c1.146-0.764,2.64-1.389,4.375-1.355C91.554,16.663,92.353,17.462,92.353,18.469z"/>
	</g>
	<g>
		<path d="M113.175,25.345v6.808c0,1.008-0.834,1.841-1.842,1.841c-0.902,0-1.597-0.659-1.806-1.493
			c-1.319,0.938-2.883,1.493-4.619,1.493c-2.361,0-4.41-0.973-5.903-2.535c-1.493-1.598-2.362-3.751-2.362-6.113
			c0-2.396,0.869-4.549,2.362-6.112c1.493-1.598,3.542-2.604,5.903-2.604c1.736,0,3.3,0.59,4.619,1.528
			c0.209-0.868,0.903-1.528,1.806-1.528c1.008,0,1.842,0.833,1.842,1.875V25.345z M109.493,25.345c0-1.458-0.521-2.708-1.355-3.577
			c-0.833-0.938-2.014-1.423-3.229-1.423c-1.25,0-2.431,0.486-3.229,1.423c-0.833,0.869-1.32,2.119-1.32,3.577
			c0,1.425,0.487,2.675,1.32,3.578c0.799,0.867,1.979,1.354,3.229,1.354c1.216,0,2.396-0.487,3.229-1.354
			C108.972,28.02,109.493,26.77,109.493,25.345z"/>
	</g>
	<g>
		<path d="M136.565,23.852v8.301c0,1.008-0.799,1.841-1.806,1.841c-0.972,0-1.84-0.833-1.84-1.841v-8.301
			c0-1.944-1.633-3.507-3.612-3.507c-1.944,0-3.474,1.563-3.474,3.507v8.301c0,0.104,0,0.208-0.069,0.348
			c-0.173,0.834-0.938,1.493-1.84,1.493c-1.043,0-1.841-0.833-1.841-1.841v-8.301v-5.383c0-1.007,0.798-1.84,1.841-1.84
			c0.729,0,1.389,0.417,1.701,1.076c1.042-0.66,2.326-1.076,3.682-1.076C133.336,16.628,136.565,19.928,136.565,23.852z"/>
	</g>
	<g>
		<path d="M160.86,32.117c0,1.007-0.833,1.876-1.875,1.876c-0.938,0-1.667-0.659-1.841-1.493c-1.319,0.902-2.986,1.493-4.723,1.493
			c-4.689,0-8.439-3.959-8.439-8.648c0-4.757,3.75-8.716,8.439-8.716c1.701,0,3.368,0.556,4.653,1.458v-6.529
			c0-1.007,0.834-1.875,1.91-1.875c1.042,0,1.875,0.868,1.875,1.875v13.753c0,0,0,0,0,0.034V32.117z M152.422,20.414
			c-1.251,0-2.396,0.521-3.265,1.424c-0.869,0.869-1.39,2.119-1.39,3.507c0,1.321,0.521,2.57,1.39,3.438
			c0.868,0.903,2.014,1.424,3.265,1.424c1.285,0,2.396-0.521,3.264-1.424c0.868-0.868,1.39-2.117,1.39-3.438
			c0-1.389-0.521-2.639-1.39-3.507C154.818,20.935,153.707,20.414,152.422,20.414z"/>
	</g>
	<g>
		<path d="M174.285,11.479c0,1.042-0.799,1.91-1.876,1.91c-1.042,0-1.875-0.868-1.875-1.91v0.079c0-1.042,0.833-1.875,1.875-1.875
			c1.077,0,1.876,0.833,1.876,1.875V11.479z M174.285,17.765v14.353c0,1.043-0.799,1.876-1.876,1.876
			c-1.042,0-1.875-0.833-1.875-1.876V17.765c0-1.111,0.833-1.91,1.875-1.91C173.486,15.854,174.285,16.653,174.285,17.765z"/>
	</g>
</g>
<g>
	<circle cx="21.411" cy="21.411" r="21.411"/>
	<g>
		<path fill="#FFFFFF" d="M17.94,22.966c-0.026,0.109-0.042,0.224-0.042,0.342c0,0.804,0.652,1.455,1.456,1.455
			s1.456-0.651,1.456-1.455c0-0.036-0.003-0.071-0.005-0.107c0.243-2.797,2.596-5,5.455-5c3.02,0,5.478,2.458,5.478,5.478
			s-2.458,5.479-5.478,5.479l0,0H12.271c-0.793,0-1.437,0.643-1.437,1.437c0,0.793,0.643,1.437,1.437,1.437h13.986h0.002
			c4.604,0,8.351-3.746,8.351-8.352c0-4.605-3.746-8.352-8.351-8.352C21.894,15.326,18.303,18.693,17.94,22.966z"/>
		<path fill="#FFFFFF" d="M19.856,24.882c-0.109,0.026-0.224,0.042-0.341,0.042c-0.805,0-1.456-0.652-1.456-1.456
			s0.651-1.455,1.456-1.455c0.036,0,0.071,0.003,0.106,0.005c2.797-0.243,5-2.595,5-5.455c0-3.02-2.457-5.478-5.477-5.478
			c-3.021,0-5.478,2.457-5.478,5.477v0v13.809c0,0.793-0.643,1.437-1.437,1.437c-0.793,0-1.437-0.644-1.437-1.437V16.565
			c0,0,0-0.001,0-0.001c0-4.605,3.746-8.352,8.352-8.352c4.605,0,8.351,3.746,8.351,8.351C27.496,20.929,24.129,24.52,19.856,24.882
			z"/>
	</g>
</g>
</svg>
