<svg xmlns="http://www.w3.org/2000/svg" width="36" height="36" viewBox="0 0 36 36">
    <g fill="none" fill-rule="evenodd">
        <path d="M0 36L36 36 36 0 0 0z"/>
        <path fill="#1E1E1E" d="M23.455 5.542c-2.152 0-4.087.927-5.455 2.401-1.368-1.474-3.303-2.401-5.455-2.401-4.145 0-7.505 3.408-7.505 7.613 0 2.17 1.052 4.277 3.458 7.035L18 30.458l9.502-10.268c2.405-2.758 3.458-4.866 3.458-7.035 0-4.205-3.36-7.613-7.505-7.613m0 2.076c3.01 0 5.459 2.483 5.459 5.537 0 1.602-.882 3.293-2.905 5.613L18 27.425l-7.97-8.612c-2.064-2.365-2.944-4.056-2.944-5.658 0-3.054 2.45-5.537 5.459-5.537 1.51 0 2.919.622 3.965 1.75L18 10.972l1.49-1.604c1.046-1.128 2.455-1.75 3.965-1.75"/>
    </g>
</svg>
